{
    "accessors" : [
        {
            "bufferView" : 0,
            "componentType" : 5126,
            "count" : 4,
            "type" : "VEC2"
        },
        {
            "bufferView" : 1,
            "componentType" : 5126,
            "count" : 4,
            "type" : "VEC3"
        },
        {
            "bufferView" : 2,
            "componentType" : 5126,
            "count" : 4,
            "max" : [
                0.4420289993286133,
                0,
                0.5
            ],
            "min" : [
                -0.4420289993286133,
                0,
                -0.5
            ],
            "type" : "VEC3"
        },
        {
            "bufferView" : 3,
            "componentType" : 5123,
            "count" : 6,
            "type" : "SCALAR"
        },
        {
            "bufferView" : 4,
            "componentType" : 5126,
            "count" : 4,
            "type" : "VEC2"
        },
        {
            "bufferView" : 5,
            "componentType" : 5126,
            "count" : 4,
            "type" : "VEC3"
        },
        {
            "bufferView" : 6,
            "componentType" : 5126,
            "count" : 4,
            "max" : [
                0.19568175077438354,
                0.40653160214424133,
                0.22131073474884033
            ],
            "min" : [
                -0.328594446182251,
                0.40653160214424133,
                -0.13921168446540833
            ],
            "type" : "VEC3"
        },
        {
            "bufferView" : 7,
            "componentType" : 5123,
            "count" : 6,
            "type" : "SCALAR"
        },
        {
            "bufferView" : 8,
            "componentType" : 5126,
            "count" : 4,
            "type" : "VEC2"
        },
        {
            "bufferView" : 9,
            "componentType" : 5126,
            "count" : 4,
            "type" : "VEC3"
        },
        {
            "bufferView" : 10,
            "componentType" : 5126,
            "count" : 4,
            "max" : [
                0.30940088629722595,
                0.21110676229000092,
                0.2659485638141632
            ],
            "min" : [
                -0.30940088629722595,
                0.21110676229000092,
                -0.3214419186115265
            ],
            "type" : "VEC3"
        },
        {
            "bufferView" : 11,
            "componentType" : 5123,
            "count" : 6,
            "type" : "SCALAR"
        }
    ],
    "asset" : {
        "generator" : "Khronos Blender glTF 2.0 I/O",
        "version" : "2.0"
    },
    "bufferViews" : [
        {
            "buffer" : 0,
            "byteLength" : 32,
            "byteOffset" : 0
        },
        {
            "buffer" : 0,
            "byteLength" : 48,
            "byteOffset" : 32
        },
        {
            "buffer" : 0,
            "byteLength" : 48,
            "byteOffset" : 80
        },
        {
            "buffer" : 0,
            "byteLength" : 12,
            "byteOffset" : 128
        },
        {
            "buffer" : 0,
            "byteLength" : 32,
            "byteOffset" : 140
        },
        {
            "buffer" : 0,
            "byteLength" : 48,
            "byteOffset" : 172
        },
        {
            "buffer" : 0,
            "byteLength" : 48,
            "byteOffset" : 220
        },
        {
            "buffer" : 0,
            "byteLength" : 12,
            "byteOffset" : 268
        },
        {
            "buffer" : 0,
            "byteLength" : 32,
            "byteOffset" : 280
        },
        {
            "buffer" : 0,
            "byteLength" : 48,
            "byteOffset" : 312
        },
        {
            "buffer" : 0,
            "byteLength" : 48,
            "byteOffset" : 360
        },
        {
            "buffer" : 0,
            "byteLength" : 12,
            "byteOffset" : 408
        }
    ],
    "buffers" : [
        {
            "byteLength" : 420,
            "uri" : "arSourse.bin"
        }
    ],
    "extensions" : {},
    "images" : [
        {
            "mimeType" : "image/png",
            "name" : "Texture",
            "uri" : "Texture.png"
        },
        {
            "mimeType" : "image/png",
            "name" : "AR_Hand",
            "uri" : "AR_Hand.png"
        },
        {
            "mimeType" : "image/png",
            "name" : "AR_Head",
            "uri" : "AR_Head.png"
        }
    ],
    "materials" : [
        {
            "name" : "AR_Background",
            "pbrMetallicRoughness" : {
                "baseColorTexture" : {
                    "index" : 0,
                    "texCoord" : 0
                }
            }
        },
        {
            "name" : "AR_Hand",
            "pbrMetallicRoughness" : {
                "baseColorTexture" : {
                    "index" : 1,
                    "texCoord" : 0
                }
            }
        },
        {
            "name" : "AR_Head",
            "pbrMetallicRoughness" : {
                "baseColorTexture" : {
                    "index" : 2,
                    "texCoord" : 0
                }
            }
        }
    ],
    "meshes" : [
        {
            "name" : "AR_Background",
            "primitives" : [
                {
                    "attributes" : {
                        "NORMAL" : 1,
                        "POSITION" : 2,
                        "TEXCOORD_0" : 0
                    },
                    "indices" : 3,
                    "material" : 0
                },
                {
                    "attributes" : {
                        "NORMAL" : 5,
                        "POSITION" : 6,
                        "TEXCOORD_0" : 4
                    },
                    "indices" : 7,
                    "material" : 1
                },
                {
                    "attributes" : {
                        "NORMAL" : 9,
                        "POSITION" : 10,
                        "TEXCOORD_0" : 8
                    },
                    "indices" : 11,
                    "material" : 2
                }
            ]
        }
    ],
    "nodes" : [
        {
            "mesh" : 0,
            "name" : "AR_Background",
            "scale" : [
                19.365177154541016,
                19.365177154541016,
                19.365177154541016
            ],
            "translation" : [
                0.598551332950592,
                -0.3257811665534973,
                0.7493488192558289
            ]
        }
    ],
    "samplers" : [
        {
            "magFilter" : 9729,
            "minFilter" : 9986,
            "wrapS" : 33071,
            "wrapT" : 33071
        },
        {
            "magFilter" : 9729,
            "minFilter" : 9986,
            "wrapS" : 33071,
            "wrapT" : 33071
        },
        {
            "magFilter" : 9729,
            "minFilter" : 9986,
            "wrapS" : 33071,
            "wrapT" : 33071
        }
    ],
    "scene" : 0,
    "scenes" : [
        {
            "name" : "Scene",
            "nodes" : [
                0
            ]
        }
    ],
    "textures" : [
        {
            "sampler" : 0,
            "source" : 0
        },
        {
            "sampler" : 1,
            "source" : 1
        },
        {
            "sampler" : 2,
            "source" : 2
        }
    ]
}
