{
    "accessors" : [
        {
            "bufferView" : 0,
            "componentType" : 5126,
            "count" : 2160,
            "type" : "VEC2"
        },
        {
            "bufferView" : 1,
            "componentType" : 5126,
            "count" : 2160,
            "type" : "VEC3"
        },
        {
            "bufferView" : 2,
            "componentType" : 5126,
            "count" : 2160,
            "max" : [
                1.3369140625,
                1.3359096050262451,
                0.82568359375
            ],
            "min" : [
                -1.3369140625,
                -0.5888950228691101,
                -0.80078125
            ],
            "type" : "VEC3"
        },
        {
            "bufferView" : 3,
            "componentType" : 5123,
            "count" : 11808,
            "type" : "SCALAR"
        },
        {
            "bufferView" : 4,
            "componentType" : 5126,
            "count" : 1417,
            "max" : [
                2.499999999999949
            ],
            "min" : [
                0.041666666666666664
            ],
            "type" : "SCALAR"
        },
        {
            "bufferView" : 5,
            "componentType" : 5126,
            "count" : 1417,
            "type" : "VEC4"
        }
    ],
    "animations" : [
        {
            "channels" : [
                {
                    "sampler" : 0,
                    "target" : {
                        "node" : 0,
                        "path" : "rotation"
                    }
                }
            ],
            "name" : "spin",
            "samplers" : [
                {
                    "input" : 4,
                    "interpolation" : "STEP",
                    "output" : 5
                }
            ]
        }
    ],
    "asset" : {
        "generator" : "Khronos Blender glTF 2.0 I/O",
        "version" : "2.0"
    },
    "bufferViews" : [
        {
            "buffer" : 0,
            "byteLength" : 17280,
            "byteOffset" : 0
        },
        {
            "buffer" : 0,
            "byteLength" : 25920,
            "byteOffset" : 17280
        },
        {
            "buffer" : 0,
            "byteLength" : 25920,
            "byteOffset" : 43200
        },
        {
            "buffer" : 0,
            "byteLength" : 23616,
            "byteOffset" : 69120
        },
        {
            "buffer" : 0,
            "byteLength" : 5668,
            "byteOffset" : 92736
        },
        {
            "buffer" : 0,
            "byteLength" : 22672,
            "byteOffset" : 98404
        }
    ],
    "buffers" : [
        {
            "byteLength" : 121076,
            "uri" : "02_suzanne.bin"
        }
    ],
    "extensions" : {},
    "images" : [
        {
            "mimeType" : "image/png",
            "name" : "02_suzanne_Normal.png",
            "uri" : "02_suzanne_Normal.png"
        },
        {
            "mimeType" : "image/png",
            "name" : "02_Suzanne_BaseColor.png",
            "uri" : "02_Suzanne_BaseColor.png"
        },
        {
            "mimeType" : "image/png",
            "name" : "02_Suzanne_OcclusionRoughnessMetallic.png",
            "uri" : "02_Suzanne_OcclusionRoughnessMetallic.png"
        }
    ],
    "materials" : [
        {
            "emissiveFactor" : [
                0,
                0,
                0
            ],
            "name" : "Suzanne",
            "normalTexture" : {
                "index" : 0,
                "texCoord" : 0
            },
            "pbrMetallicRoughness" : {
                "baseColorFactor" : [
                    1,
                    1,
                    1,
                    1
                ],
                "baseColorTexture" : {
                    "index" : 1,
                    "texCoord" : 0
                },
                "metallicFactor" : 1,
                "metallicRoughnessTexture" : {
                    "index" : 2,
                    "texCoord" : 0
                },
                "roughnessFactor" : 1
            }
        }
    ],
    "meshes" : [
        {
            "name" : "Suzanne",
            "primitives" : [
                {
                    "attributes" : {
                        "NORMAL" : 1,
                        "POSITION" : 2,
                        "TEXCOORD_0" : 0
                    },
                    "indices" : 3,
                    "material" : 0
                }
            ]
        }
    ],
    "nodes" : [
        {
            "mesh" : 0,
            "name" : "Suzanne",
            "rotation" : [
                0,
                -0.05233605578541756,
                0,
                0.9986295700073242
            ],
            "translation" : [
                0,
                0.5,
                0
            ]
        }
    ],
    "scene" : 0,
    "scenes" : [
        {
            "name" : "Scene",
            "nodes" : [
                0
            ]
        }
    ],
    "textures" : [
        {
            "source" : 0
        },
        {
            "source" : 1
        },
        {
            "source" : 2
        }
    ]
}
