{
    "accessors" : [
        {
            "bufferView" : 0,
            "componentType" : 5126,
            "count" : 12,
            "type" : "VEC3"
        },
        {
            "bufferView" : 1,
            "componentType" : 5126,
            "count" : 12,
            "max" : [
                1,
                0.6180300116539001,
                0.5000000596046448
            ],
            "min" : [
                -1,
                -1,
                -1.1180330514907837
            ],
            "type" : "VEC3"
        },
        {
            "bufferView" : 2,
            "componentType" : 5123,
            "count" : 12,
            "type" : "SCALAR"
        },
        {
            "bufferView" : 3,
            "componentType" : 5126,
            "count" : 24,
            "type" : "VEC3"
        },
        {
            "bufferView" : 4,
            "componentType" : 5126,
            "count" : 24,
            "max" : [
                1,
                1,
                1
            ],
            "min" : [
                -1,
                -1,
                -1
            ],
            "type" : "VEC3"
        },
        {
            "bufferView" : 5,
            "componentType" : 5123,
            "count" : 36,
            "type" : "SCALAR"
        },
        {
            "bufferView" : 6,
            "componentType" : 5126,
            "count" : 482,
            "type" : "VEC3"
        },
        {
            "bufferView" : 7,
            "componentType" : 5126,
            "count" : 482,
            "max" : [
                1.000000238418579,
                1,
                1.0000003576278687
            ],
            "min" : [
                -0.9999998211860657,
                -1,
                -0.9999991655349731
            ],
            "type" : "VEC3"
        },
        {
            "bufferView" : 8,
            "componentType" : 5123,
            "count" : 2880,
            "type" : "SCALAR"
        },
        {
            "bufferView" : 9,
            "componentType" : 5126,
            "count" : 3,
            "max" : [
                2
            ],
            "min" : [
                0
            ],
            "type" : "SCALAR"
        },
        {
            "bufferView" : 10,
            "componentType" : 5126,
            "count" : 9,
            "type" : "VEC3"
        },
        {
            "bufferView" : 11,
            "componentType" : 5126,
            "count" : 3,
            "max" : [
                2
            ],
            "min" : [
                0
            ],
            "type" : "SCALAR"
        },
        {
            "bufferView" : 12,
            "componentType" : 5126,
            "count" : 3,
            "type" : "VEC4"
        },
        {
            "bufferView" : 13,
            "componentType" : 5126,
            "count" : 3,
            "max" : [
                2
            ],
            "min" : [
                0
            ],
            "type" : "SCALAR"
        },
        {
            "bufferView" : 14,
            "componentType" : 5126,
            "count" : 9,
            "type" : "VEC3"
        }
    ],
    "animations" : [
        {
            "channels" : [
                {
                    "sampler" : 0,
                    "target" : {
                        "node" : 2,
                        "path" : "translation"
                    }
                }
            ],
            "name" : "SphereAction",
            "samplers" : [
                {
                    "input" : 9,
                    "interpolation" : "CUBICSPLINE",
                    "output" : 10
                }
            ]
        },
        {
            "channels" : [
                {
                    "sampler" : 0,
                    "target" : {
                        "node" : 1,
                        "path" : "rotation"
                    }
                }
            ],
            "name" : "CubeAction",
            "samplers" : [
                {
                    "input" : 11,
                    "interpolation" : "LINEAR",
                    "output" : 12
                }
            ]
        },
        {
            "channels" : [
                {
                    "sampler" : 0,
                    "target" : {
                        "node" : 0,
                        "path" : "scale"
                    }
                }
            ],
            "name" : "ConeAction",
            "samplers" : [
                {
                    "input" : 13,
                    "interpolation" : "CUBICSPLINE",
                    "output" : 14
                }
            ]
        }
    ],
    "asset" : {
        "generator" : "Khronos Blender glTF 2.0 I/O",
        "version" : "2.0"
    },
    "bufferViews" : [
        {
            "buffer" : 0,
            "byteLength" : 144,
            "byteOffset" : 0
        },
        {
            "buffer" : 0,
            "byteLength" : 144,
            "byteOffset" : 144
        },
        {
            "buffer" : 0,
            "byteLength" : 24,
            "byteOffset" : 288
        },
        {
            "buffer" : 0,
            "byteLength" : 288,
            "byteOffset" : 312
        },
        {
            "buffer" : 0,
            "byteLength" : 288,
            "byteOffset" : 600
        },
        {
            "buffer" : 0,
            "byteLength" : 72,
            "byteOffset" : 888
        },
        {
            "buffer" : 0,
            "byteLength" : 5784,
            "byteOffset" : 960
        },
        {
            "buffer" : 0,
            "byteLength" : 5784,
            "byteOffset" : 6744
        },
        {
            "buffer" : 0,
            "byteLength" : 5760,
            "byteOffset" : 12528
        },
        {
            "buffer" : 0,
            "byteLength" : 12,
            "byteOffset" : 18288
        },
        {
            "buffer" : 0,
            "byteLength" : 108,
            "byteOffset" : 18300
        },
        {
            "buffer" : 0,
            "byteLength" : 12,
            "byteOffset" : 18408
        },
        {
            "buffer" : 0,
            "byteLength" : 48,
            "byteOffset" : 18420
        },
        {
            "buffer" : 0,
            "byteLength" : 12,
            "byteOffset" : 18468
        },
        {
            "buffer" : 0,
            "byteLength" : 108,
            "byteOffset" : 18480
        }
    ],
    "buffers" : [
        {
            "byteLength" : 18588,
            "uri" : "03_all_animations.bin"
        }
    ],
    "extensions" : {},
    "materials" : [
        {
            "emissiveFactor" : [
                0,
                0,
                0
            ],
            "name" : "Shared_Material",
            "pbrMetallicRoughness" : {
                "baseColorFactor" : [
                    1,
                    1,
                    1,
                    1
                ],
                "metallicFactor" : 1,
                "roughnessFactor" : 1
            }
        }
    ],
    "meshes" : [
        {
            "name" : "Tetrahedron",
            "primitives" : [
                {
                    "attributes" : {
                        "NORMAL" : 0,
                        "POSITION" : 1
                    },
                    "indices" : 2,
                    "material" : 0
                }
            ]
        },
        {
            "name" : "Cube",
            "primitives" : [
                {
                    "attributes" : {
                        "NORMAL" : 3,
                        "POSITION" : 4
                    },
                    "indices" : 5,
                    "material" : 0
                }
            ]
        },
        {
            "name" : "Sphere",
            "primitives" : [
                {
                    "attributes" : {
                        "NORMAL" : 6,
                        "POSITION" : 7
                    },
                    "indices" : 8,
                    "material" : 0
                }
            ]
        }
    ],
    "nodes" : [
        {
            "mesh" : 0,
            "name" : "Tetrahedron",
            "translation" : [
                0,
                0,
                -4
            ]
        },
        {
            "children" : [
                0
            ],
            "mesh" : 1,
            "name" : "Cube",
            "translation" : [
                0,
                4,
                0
            ]
        },
        {
            "children" : [
                1
            ],
            "mesh" : 2,
            "name" : "Sphere"
        },
        {
            "name" : "Camera",
            "rotation" : [
                0.483536034822464,
                0.33687159419059753,
                -0.20870360732078552,
                0.7804827094078064
            ],
            "translation" : [
                9.754608154296875,
                8.852394104003906,
                8.650660514831543
            ]
        }
    ],
    "scene" : 0,
    "scenes" : [
        {
            "name" : "Scene",
            "nodes" : [
                2,
                3
            ]
        }
    ]
}
