{
    "accessors" : [
        {
            "bufferView" : 0,
            "componentType" : 5126,
            "count" : 48,
            "type" : "VEC3"
        },
        {
            "bufferView" : 1,
            "componentType" : 5126,
            "count" : 48,
            "max" : [
                1,
                1,
                0
            ],
            "min" : [
                -0.549968957901001,
                -1,
                -0.10000000894069672
            ],
            "type" : "VEC3"
        },
        {
            "bufferView" : 2,
            "componentType" : 5123,
            "count" : 96,
            "type" : "SCALAR"
        },
        {
            "bufferView" : 3,
            "componentType" : 5126,
            "count" : 48,
            "type" : "VEC3"
        },
        {
            "bufferView" : 4,
            "componentType" : 5126,
            "count" : 48,
            "max" : [
                4.420158863067627,
                0,
                0
            ],
            "min" : [
                0.5776968002319336,
                0,
                0
            ],
            "type" : "VEC3"
        },
        {
            "bufferView" : 5,
            "componentType" : 5126,
            "count" : 2,
            "max" : [
                2.5
            ],
            "min" : [
                0.041666666666666664
            ],
            "type" : "SCALAR"
        },
        {
            "bufferView" : 6,
            "componentType" : 5126,
            "count" : 2,
            "type" : "SCALAR"
        }
    ],
    "animations" : [
        {
            "channels" : [
                {
                    "sampler" : 0,
                    "target" : {
                        "node" : 0,
                        "path" : "weights"
                    }
                }
            ],
            "name" : "KeyAction",
            "samplers" : [
                {
                    "input" : 5,
                    "interpolation" : "LINEAR",
                    "output" : 6
                }
            ]
        }
    ],
    "asset" : {
        "generator" : "Khronos Blender glTF 2.0 I/O",
        "version" : "2.0"
    },
    "bufferViews" : [
        {
            "buffer" : 0,
            "byteLength" : 576,
            "byteOffset" : 0
        },
        {
            "buffer" : 0,
            "byteLength" : 576,
            "byteOffset" : 576
        },
        {
            "buffer" : 0,
            "byteLength" : 192,
            "byteOffset" : 1152
        },
        {
            "buffer" : 0,
            "byteLength" : 576,
            "byteOffset" : 1344
        },
        {
            "buffer" : 0,
            "byteLength" : 576,
            "byteOffset" : 1920
        },
        {
            "buffer" : 0,
            "byteLength" : 8,
            "byteOffset" : 2496
        },
        {
            "buffer" : 0,
            "byteLength" : 8,
            "byteOffset" : 2504
        }
    ],
    "buffers" : [
        {
            "byteLength" : 2512,
            "uri" : "arrow.bin"
        }
    ],
    "extensions" : {},
    "meshes" : [
        {
            "name" : "Plane.000",
            "primitives" : [
                {
                    "attributes" : {
                        "NORMAL" : 0,
                        "POSITION" : 1
                    },
                    "indices" : 2,
                    "targets" : [
                        {
                            "NORMAL" : 3,
                            "POSITION" : 4
                        }
                    ]
                }
            ]
        }
    ],
    "nodes" : [
        {
            "mesh" : 0,
            "name" : "arrow",
            "rotation" : [
                0.7071068286895752,
                0,
                0,
                0.7071067094802856
            ],
            "translation" : [
                -1.4441335201263428,
                0,
                0
            ]
        }
    ],
    "scene" : 0,
    "scenes" : [
        {
            "name" : "Scene",
            "nodes" : [
                0
            ]
        }
    ]
}
